<?xml version="1.0" encoding="UTF-8"?>
<svg width="752pt" height="752pt" version="1.1" viewBox="0 0 752 752" xmlns="http://www.w3.org/2000/svg">
 <path d="m510.97 316.8h-12.785l-0.003906-62.512c0-56.828-46.41-103.24-103.24-103.24h-37.887c-56.828 0-103.24 46.41-103.24 103.24v62.039h-12.785c-25.574 0-45.938 20.836-45.938 45.938v192.27c0 25.574 20.836 45.938 45.938 45.938h270.41c25.574 0 45.938-20.836 45.938-45.938l0.003906-191.8c0-25.574-20.836-45.938-46.41-45.938zm-195.12-62.512c0-22.73 18.469-41.203 41.203-41.203h37.887c22.73 0 41.203 18.469 41.203 41.203v62.039h-120.29z" fill="#A6A6B2"/>
</svg>
